<?xml version="1.0" standalone="no"?>
<!DOCTYPE svg PUBLIC "-//W3C//DTD SVG 20010904//EN"
 "http://www.w3.org/TR/2001/REC-SVG-20010904/DTD/svg10.dtd">
<svg version="1.0" xmlns="http://www.w3.org/2000/svg"
 width="360.000000pt" height="360.000000pt" viewBox="0 0 360.000000 360.000000"
 preserveAspectRatio="xMidYMid meet">

<g transform="translate(0.000000,360.000000) scale(0.100000,-0.100000)"
fill="#6A5ACDFF" stroke="none">
<path d="M1605 3589 c-200 -21 -398 -79 -590 -173 -375 -185 -646 -456 -831
-831 -105 -215 -156 -399 -176 -642 -40 -480 119 -961 441 -1330 247 -282 587
-484 961 -569 377 -86 800 -39 1149 126 394 188 683 477 871 871 165 349 212
772 126 1149 -85 374 -287 714 -569 961 -381 333 -879 490 -1382 438z m412
-114 c271 -36 497 -121 724 -273 533 -358 816 -983 734 -1619 -9 -65 -27 -159
-40 -210 -27 -102 -83 -253 -93 -253 -15 0 -111 92 -132 125 -12 19 -32 74
-45 122 -13 49 -33 112 -45 142 -19 50 -20 60 -9 134 15 105 5 325 -20 437
-116 513 -514 904 -1031 1016 -64 14 -128 18 -260 18 -132 0 -196 -4 -260 -18
-517 -112 -915 -504 -1031 -1016 -38 -169 -35 -418 7 -582 14 -54 13 -59 -12
-130 -53 -147 -117 -250 -185 -299 -38 -27 -35 -30 -90 111 -291 739 -30 1579
630 2022 346 231 748 326 1158 273z m139 -856 c88 -23 291 -28 354 -9 49 14
95 13 109 -4 7 -9 13 -64 14 -148 l2 -133 46 -105 c26 -58 101 -220 166 -360
130 -275 180 -400 218 -541 13 -49 33 -105 44 -123 24 -38 166 -176 181 -176
6 0 -3 -24 -20 -52 -16 -29 -33 -53 -37 -53 -5 0 -51 11 -103 25 -78 21 -116
25 -215 24 -136 -2 -224 -21 -357 -79 -45 -19 -84 -35 -88 -35 -4 0 -22 21
-40 46 l-33 47 87 83 c47 45 93 99 101 118 20 48 19 126 -4 189 -37 107 -203
474 -244 541 -54 88 -65 95 -109 72 -31 -17 -37 -17 -64 -3 -40 21 -101 87
-109 117 -5 21 6 42 60 115 68 90 87 126 98 181 8 39 -21 68 -111 113 -34 17
-72 41 -82 51 -19 19 -19 22 -5 51 14 27 50 69 58 69 2 0 39 -9 83 -21z m-868
-26 l143 -6 74 -146 c100 -196 304 -521 329 -521 5 0 28 18 52 40 34 32 51 40
81 40 31 0 43 -7 80 -46 52 -57 55 -88 16 -166 -22 -44 -28 -69 -31 -150 -5
-117 8 -185 85 -422 46 -146 52 -171 39 -178 -9 -5 -60 -42 -113 -82 -103 -76
-163 -136 -201 -198 l-23 -38 -68 35 -68 34 10 53 c8 46 5 78 -27 233 -78 381
-158 609 -277 780 -63 92 -202 230 -223 222 -8 -3 -31 -38 -51 -77 -23 -46
-41 -70 -53 -70 -25 0 -192 83 -192 96 0 6 21 66 46 135 28 75 48 148 51 186
5 60 5 62 -23 76 -16 8 -54 22 -84 32 -30 10 -59 21 -64 26 -6 5 6 31 27 64
l37 55 143 0 c78 0 206 -3 285 -7z m-333 -710 c51 -26 75 -43 75 -55 0 -10
-23 -78 -51 -150 -94 -248 -119 -324 -136 -427 -20 -120 -16 -133 61 -191 39
-30 46 -40 46 -70 l0 -36 -142 0 c-161 0 -231 -14 -332 -67 -34 -18 -64 -33
-67 -35 -4 -1 -21 20 -39 49 -32 49 -33 52 -14 61 10 6 49 41 85 78 84 84 123
164 219 446 104 305 164 434 201 434 10 0 52 -17 94 -37z m2150 -1049 c33 -8
62 -17 64 -19 12 -13 -188 -229 -294 -318 -394 -331 -941 -459 -1458 -342
-334 75 -650 265 -886 530 -61 69 -62 70 -41 87 55 45 217 83 329 76 65 -3 72
-6 122 -49 166 -141 365 -241 579 -290 122 -28 347 -36 470 -15 244 40 472
140 644 284 46 38 101 59 196 76 48 9 215 -3 275 -20z"/>
</g>
</svg>
